# xmcd CD database file
#
# Track frame offsets:
#	150
#	19044
#	44076
#	68206
#	91366
#	123611
#	142416
#	162410
#	184495
#	205435
#
# Disc length: 3095 seconds
#
# Revision: 0
# Processed by: cddbd v1.4PL0 Copyright (c) Steve Scherf et al.
# Submitted via: CDex 1.50Beta7
#
DISCID=a20c150a
DTITLE=French Cookin' Blues Band - Good Gravy
DYEAR=2003
DGENRE=Blues
TTITLE0=Full Days Work
TTITLE1=Cute Little
TTITLE2=Give Away Heart
TTITLE3=That's What I Heard
TTITLE4=True Fairytale
TTITLE5=Hate To See Her Leave
TTITLE6=You Don't Know What Love Is
TTITLE7=Even Break
TTITLE8=You Got To Move
TTITLE9=You Gave Me A Chill
EXTD=YEAR: 2003
EXTT0=
EXTT1=
EXTT2=
EXTT3=
EXTT4=
EXTT5=
EXTT6=
EXTT7=
EXTT8=
EXTT9=
PLAYORDER=
